<svg width="280" height="85" viewBox="0 0 280 85" version="1.1" xmlns="http://www.w3.org/2000/svg"><title>BANM Logo</title><g id="Page-1" stroke="none" stroke-width="1" fill="none" fill-rule="evenodd"><g id="Homepage-Static"><g id="BANM-Logo"><path d="M41.387.01h-1.16l-.003 21.423c.936.214 1.633 1.056 1.633 2.066 0 1.17-.938 2.118-2.095 2.117-1.157 0-2.094-.948-2.094-2.118 0-1.01.7-1.853 1.632-2.067V.01h-1.16c-2.06 9.795-8.26 12.262-8.26 12.262l.78 18.267 9.102 9.207 9.103-9.21.78-18.265S43.445 9.805 41.387.01zM16.105 56.823L.03 65.99l16.075 9.165H31.51v9.485h7.19V56.823H16.105zm12.812-25.01l-17.773-5.02 4.96 17.983 9.784 9.898H38.7V41.71l-9.783-9.897zM79.494 65.99L63.42 56.822H40.824V84.64h7.188v-9.485H63.42l16.074-9.166zM68.38 26.793l-17.772 5.02-9.783 9.897v12.964h12.812l9.782-9.898 4.96-17.982z" id="Logo-Mark" fill="#5E2728"/><path d="M90.2 67.832c2.097 0 3.118-.43 3.118-2.178 0-1.653-1.04-2.066-3.156-2.066H89.03v4.244h1.17zm-.186-5.766c1.93 0 2.747-.45 2.747-1.934 0-1.465-.853-1.84-2.654-1.84H89.03v3.774h.984zm5.977-2.29c0 1.426-.853 2.44-2.505 2.91 1.986.338 3.044 1.484 3.044 3.25 0 2.59-1.764 3.418-5.29 3.418H84.09v-1.54h.705c1.04 0 1.188-.113 1.188-1.165v-7.194c0-1.052-.148-1.165-1.188-1.165h-.705v-1.54h7.332c3.044 0 4.567.81 4.567 3.025zm4.108 7.174c0 .6.408 1.033 1.058 1.033 1.04 0 1.67-.62 1.67-1.822v-1.295c-1.688.845-2.728 1.033-2.728 2.085zm-.037 2.742c-1.763 0-2.82-1.033-2.82-2.535 0-1.41.853-2.104 2.635-2.574 1.764-.45 3.026-.507 3.026-1.84 0-.92-.74-1.522-1.8-1.522-.687 0-1.17.133-1.56.527.67.056 1.06.488 1.06 1.09 0 .638-.632 1.183-1.43 1.183-.89 0-1.522-.563-1.522-1.41 0-1.445 1.43-2.46 4.046-2.46 1.41 0 2.45.34 3.026.846.706.62.743 1.258.743 2.085v4c0 .583.148.884.5.884.354 0 .483-.3.483-.883v-.994h1.114v.864c0 1.86-.63 2.723-2.357 2.723-1.077 0-1.764-.432-2.135-1.352-.872.92-1.838 1.372-3.007 1.372zm14.232-9.466c1.355 0 2.153.826 2.153 2.01 0 1.052-.668 1.728-1.596 1.728-.744 0-1.3-.526-1.3-1.202 0-.602.333-1.052.983-1.24-.186-.113-.37-.17-.575-.17-1.15 0-1.857 1.053-1.857 3.23v2.255c0 .827.076 1.127.948 1.127h.854v1.39h-5.922v-1.39h.464c.854 0 .984-.282.984-1.127v-3.83c0-.847-.13-1.128-.984-1.128h-.464v-1.39h4.066v1.145c.52-.92 1.336-1.41 2.246-1.41zm9.114 0c1.355 0 2.154.826 2.154 2.01 0 1.052-.67 1.728-1.597 1.728-.743 0-1.3-.526-1.3-1.202 0-.602.335-1.052.985-1.24-.186-.113-.372-.17-.576-.17-1.15 0-1.856 1.053-1.856 3.23v2.255c0 .827.074 1.127.946 1.127h.854v1.39h-5.92v-1.39h.463c.853 0 .983-.282.983-1.127v-3.83c0-.847-.13-1.128-.984-1.128h-.465v-1.39h4.065v1.145c.52-.92 1.336-1.41 2.246-1.41zm5.15 13.222c-1.597 0-2.637-.976-2.637-2.423 0-1.05.667-1.727 1.558-1.727.854 0 1.41.488 1.41 1.24 0 .77-.52 1.257-1.41 1.257h-.11c.296.32.575.47.946.47.91 0 1.69-.883 2.227-2.61l-2.764-6.48c-.39-.94-.65-1.297-1.597-1.297h-.15v-1.39h5.42v1.39c-.166-.018-.314-.018-.445-.018-.52 0-.723.113-.723.526 0 .13.036.28.11.47l1.523 3.624 1.41-3.512c.112-.3.186-.545.186-.714 0-.263-.277-.376-.797-.376h-.353v-1.39h4.196v1.39h-.13c-.965 0-1.17.433-1.523 1.315l-2.784 6.893c-.91 2.236-1.987 3.362-3.565 3.362zm14.386-13.786l-1.374 4.076h2.766l-1.392-4.076zm7.37 8.152v1.54h-6.665v-1.54h.668c.8 0 1.133-.075 1.133-.6 0-.133-.056-.34-.15-.603l-.463-1.313h-3.805l-.464 1.37c-.075.245-.13.452-.13.602 0 .47.223.544.928.544h.798v1.54h-5.606v-1.54h.613c.908 0 1.15-.564 1.41-1.334l3.286-9.73h3.192l3.323 9.787c.39 1.126.576 1.277 1.45 1.277h.482zm.595.15h.54c.853 0 .983-.282.983-1.127v-3.83c0-.847-.13-1.13-.984-1.13h-.54V60.49h4.142v1.464c.93-1.202 1.912-1.766 3.21-1.766 1.19 0 1.895.564 2.285 1.785 1.002-1.184 1.912-1.766 3.045-1.766 1.95 0 2.58 1.09 2.58 3.268v3.362c0 .827.074 1.127.984 1.127h.464v1.39h-5.18v-1.39h.353c.687 0 .724-.357.724-1.127v-3.324c0-1.127-.205-1.747-1.003-1.747-1.02 0-1.874.94-1.874 2.442v2.63c0 .77.074 1.126.854 1.126h.24v1.39h-4.825v-1.39h.334c.686 0 .723-.357.723-1.127v-3.324c0-1.127-.185-1.747-.984-1.747-1.003 0-1.876.94-1.876 2.442v2.63c0 .807.074 1.126.928 1.126h.186v1.39h-5.31v-1.39zm20.006-11.232c.798 0 1.448.658 1.448 1.466 0 .807-.63 1.483-1.447 1.483-.817 0-1.448-.656-1.448-1.482 0-.827.65-1.466 1.448-1.466zm2.45 11.232h.557v1.39h-5.698v-1.39h.538c.854 0 .983-.282.983-1.127v-3.83c0-.847-.13-1.13-.983-1.13h-.538V60.49h4.195v6.347c0 .827.074 1.127.946 1.127zm7.227-4.17v-.13c0-1.335-.595-2.048-1.634-2.048-1.058 0-1.615.732-1.615 2.103v.074h3.25zm2.635 2.517c-.185 2.086-1.782 3.382-4.25 3.382-2.822 0-4.642-1.784-4.642-4.77 0-2.818 1.875-4.79 4.64-4.79 2.767 0 4.438 1.766 4.438 4.884v.206h-6.107c0 1.935.63 2.836 2.117 2.836 1.076 0 1.782-.6 1.986-1.747h1.82zm1.137-8.17h-.556v-1.39h4.213v10.087c0 .827.073 1.127.945 1.127h.556v1.39h-5.714v-1.39h.556c.854 0 .984-.282.984-1.127v-7.57c0-.844-.13-1.126-.984-1.126zm13.95.602c0-.808-.52-1.334-1.262-1.334-.798 0-1.337.64-1.337 1.71 0 .657.223 1.333.65 2.085 1.337-.752 1.95-1.41 1.95-2.46zm-2.933 4.3c-1.393.696-2.024 1.466-2.024 2.612 0 1.615 1.243 2.798 2.82 2.798.688 0 1.487-.262 2.378-.788-1.15-1.26-2.153-2.818-3.175-4.62zm.37 6.688c-2.468 0-4.25-1.653-4.25-3.813 0-1.672 1.095-3.005 3.285-4.04-.445-1.05-.706-1.876-.706-2.553 0-1.67 1.244-2.948 3.044-2.948 1.467 0 2.58 1.014 2.58 2.366 0 1.334-.91 2.592-2.728 3.57.965 1.614 1.893 3.042 2.95 4.187 1.19-1.335 1.765-2.368 1.765-2.987 0-.583-.427-.808-1.39-.808h-.503V61.69h5.458v1.015h-.464c-1.15 0-1.466.526-1.967 1.446-.538.997-1.114 2.123-2.153 3.175.65.676 1.262 1.015 1.912 1.015 1.076 0 1.633-.92 1.708-2.78h.984v.075c0 2.705-1.04 4.076-3.064 4.076-1.04 0-1.967-.375-2.82-1.164-1.115.79-2.377 1.184-3.64 1.184zM89.124 83.106h.835v1.54h-5.866v-1.54h.612c1.04 0 1.19-.112 1.19-1.164V74.75c0-1.054-.15-1.166-1.19-1.166h-.612v-1.54h5.495l5.16 8.997v-6.29c0-1.054-.148-1.166-1.188-1.166h-.836v-1.54h5.81v1.54h-.557c-1.04 0-1.188.112-1.188 1.165v9.897h-3.212l-5.643-9.86v7.155c0 1.052.148 1.164 1.188 1.164zm11.82-2.986c0 2.29.668 3.4 2.097 3.4 1.41 0 2.06-1.11 2.06-3.325 0-2.197-.65-3.287-2.06-3.287-1.373 0-2.097 1.09-2.097 3.212zm7.11.095c0 2.835-1.95 4.75-5.03 4.75-3.027 0-5.013-1.896-5.013-4.75 0-2.856 1.967-4.77 5.03-4.77 3.026 0 5.013 1.914 5.013 4.77zm6.76-4.696c1.356 0 2.154.825 2.154 2.01 0 1.05-.668 1.727-1.596 1.727-.742 0-1.3-.527-1.3-1.203 0-.6.336-1.052.985-1.24-.186-.112-.37-.17-.575-.17-1.15 0-1.857 1.054-1.857 3.232v2.254c0 .827.075 1.127.947 1.127h.854v1.39h-5.922v-1.39h.464c.854 0 .984-.282.984-1.127v-3.832c0-.845-.13-1.127-.984-1.127h-.464v-1.388h4.066v1.145c.52-.92 1.336-1.408 2.246-1.408zm2.804 7.736h.538c.854 0 .984-.28.984-1.126v-3.832c0-.845-.13-1.127-.985-1.127h-.538v-1.39h4.14v1.467c.928-1.203 1.912-1.766 3.21-1.766 1.19 0 1.895.564 2.284 1.785 1.004-1.183 1.913-1.766 3.046-1.766 1.95 0 2.58 1.09 2.58 3.268v3.362c0 .826.074 1.126.984 1.126h.464v1.39h-5.18v-1.39h.353c.687 0 .724-.356.724-1.126v-3.324c0-1.128-.203-1.748-1-1.748-1.022 0-1.876.94-1.876 2.443v2.63c0 .77.074 1.126.854 1.126h.24v1.39h-4.825v-1.39h.334c.687 0 .724-.356.724-1.126v-3.324c0-1.128-.185-1.748-.983-1.748-1.002 0-1.875.94-1.875 2.443v2.63c0 .807.074 1.126.928 1.126h.186v1.39h-5.31v-1.39zm20.29-1.014c0 .602.407 1.033 1.057 1.033 1.04 0 1.67-.62 1.67-1.82v-1.297c-1.688.845-2.728 1.033-2.728 2.084zm-.038 2.743c-1.764 0-2.822-1.033-2.822-2.536 0-1.41.853-2.105 2.636-2.574 1.763-.45 3.025-.507 3.025-1.84 0-.92-.743-1.522-1.8-1.522-.688 0-1.17.13-1.56.526.668.056 1.058.49 1.058 1.09 0 .638-.632 1.182-1.43 1.182-.89 0-1.522-.563-1.522-1.408 0-1.447 1.43-2.46 4.047-2.46 1.41 0 2.45.337 3.026.844.704.62.74 1.26.74 2.085v4c0 .583.15.884.503.884.352 0 .482-.3.482-.884v-.995h1.114v.864c0 1.86-.632 2.724-2.36 2.724-1.075 0-1.762-.432-2.134-1.352-.872.92-1.837 1.37-3.007 1.37zm14.275-1.73h.335c.872 0 .947-.3.947-1.125v-3.324c0-1.146-.26-1.748-1.264-1.748-1.114 0-1.95.958-1.95 2.443v2.63c0 .826.075 1.126.947 1.126h.334v1.39h-5.476v-1.39h.54c.852 0 .982-.28.982-1.126v-3.832c0-.845-.13-1.127-.983-1.127h-.54v-1.39h4.14v1.58c1.003-1.278 1.877-1.86 3.158-1.86 2.098 0 2.785 1.09 2.785 3.268v3.362c0 .845.093 1.126 1.058 1.126h.408v1.39h-5.42v-1.39zm24.42-9.67h-.704c-1.04 0-1.17.11-1.17 1.164v7.192c0 1.052.13 1.164 1.17 1.164h.706v1.54h-6.515v-1.54h.594c1.04 0 1.17-.112 1.17-1.164V74.26l-3.36 10.387h-2.06l-3.305-10.387v7.682c0 1.052.13 1.164 1.168 1.164h.538v1.54h-5.605v-1.54h.67c1.038 0 1.187-.112 1.187-1.164V74.75c0-1.054-.15-1.166-1.188-1.166h-.67v-1.54h6.145l2.562 8.095 2.654-8.096h6.016v1.54zm6.44 5.5v-.13c0-1.333-.594-2.047-1.634-2.047-1.057 0-1.613.732-1.613 2.104v.074h3.25zm2.636 2.52c-.185 2.084-1.78 3.38-4.25 3.38-2.822 0-4.64-1.784-4.64-4.77 0-2.82 1.874-4.79 4.64-4.79 2.766 0 4.437 1.765 4.437 4.882v.207h-6.107c0 1.935.63 2.836 2.116 2.836 1.076 0 1.782-.6 1.986-1.746h1.82zm1.138-8.172h-.557v-1.39h4.213V82.13c0 .826.075 1.126.947 1.126h.557v1.39h-5.716v-1.39h.558c.853 0 .983-.28.983-1.126v-7.57c0-.845-.13-1.127-.982-1.127zm11.296 9.955c1.115 0 1.708-1.033 1.708-3.08 0-2.103-.557-3.1-1.8-3.1-1.282 0-1.8 1.034-1.8 3.1 0 2.085.593 3.08 1.892 3.08zm-5.606-9.955h-.39v-1.39h4.066v5.315c.798-1.257 1.726-1.84 2.988-1.84 2.135 0 3.583 1.71 3.583 4.733 0 3.082-1.336 4.716-3.86 4.716-1.318 0-2.302-.526-2.97-1.56l-.8 1.316h-1.596V74.56c0-.77-.13-1.126-1.022-1.126zm11.198 3.738h-.335v-1.39h4.067v5.88c0 1.146.278 1.747 1.28 1.747 1.114 0 1.932-.958 1.932-2.442v-2.667c0-.826-.076-1.127-.95-1.127h-.52v-1.39h4.16v6.35c0 .826.075 1.127.966 1.127h.575v1.39h-4.176V83.22c-.91 1.183-1.894 1.746-3.1 1.746-2.153 0-2.84-1.07-2.84-3.268v-3.4c0-.845-.093-1.127-1.058-1.127zm18.46-1.65c1.354 0 2.152.825 2.152 2.01 0 1.05-.668 1.727-1.597 1.727-.74 0-1.298-.527-1.298-1.203 0-.6.334-1.052.984-1.24-.186-.112-.372-.17-.576-.17-1.15 0-1.856 1.054-1.856 3.232v2.254c0 .827.074 1.127.947 1.127h.855v1.39h-5.922v-1.39h.464c.854 0 .984-.282.984-1.127v-3.832c0-.845-.13-1.127-.983-1.127h-.464v-1.388h4.065v1.145c.52-.92 1.337-1.408 2.247-1.408zm9.157 7.736h.335c.873 0 .947-.3.947-1.126v-3.324c0-1.146-.26-1.748-1.262-1.748-1.115 0-1.95.958-1.95 2.443v2.63c0 .826.074 1.126.947 1.126h.334v1.39h-5.476v-1.39h.538c.854 0 .984-.28.984-1.126v-3.832c0-.845-.13-1.127-.984-1.127h-.538v-1.39h4.14v1.58c1.002-1.278 1.874-1.86 3.155-1.86 2.098 0 2.785 1.09 2.785 3.268v3.362c0 .845.093 1.126 1.06 1.126h.407v1.39h-5.422v-1.39zm7.84-6.555h-1.558v-.92c1.41-.074 2.116-1.22 2.283-3.51h.873v3.51h2.674v.92h-2.673v6.144c0 .694.28 1.032.892 1.032 1.114 0 1.355-.864 1.355-2.854h.854v.206c0 2.573-.705 3.738-2.505 3.738-1.337 0-2.19-.827-2.19-2.122V76.7zm10.005 7.026h.91v.92h-5.422v-.92h.52c1.002 0 1.206-.207 1.206-1.07V77.77c0-.864-.204-1.09-1.206-1.09h-.52v-.9h3.323v1.84c.648-1.408 1.52-2.123 2.672-2.123 1.28 0 2.116.9 2.116 1.99 0 .79-.483 1.334-1.132 1.334-.594 0-1.04-.432-1.04-.958 0-.544.353-.94.91-.94h.11c-.296-.394-.61-.543-1.038-.543-1.374 0-2.6 1.595-2.6 4.17v2.102c0 .864.187 1.07 1.19 1.07zm5.672-5.954c0-.864-.204-1.09-1.207-1.09h-.408v-.9h3.193v5.314c0 1.935.446 2.8 1.857 2.8 1.652 0 2.803-1.184 2.803-3.062v-3.062c0-.864-.186-1.09-1.19-1.09h-.722v-.9h3.508v6.873c0 .864.204 1.07 1.207 1.07h.52v.922h-3.322v-1.54c-.724 1.182-1.838 1.784-3.23 1.784-1.114 0-1.93-.356-2.47-1.108-.5-.695-.538-1.652-.538-2.93v-3.08zm10.288 3.23h.966c.315 1.804 1.67 2.93 3.34 2.93 1.28 0 2.042-.582 2.042-1.446 0-.695-.538-1.146-1.652-1.352l-1.67-.32c-1.894-.375-2.915-1.35-2.915-2.78 0-1.445 1.205-2.553 3.285-2.553.965 0 1.95.34 2.82.996l.373-.808h.835v3.456h-.946c-.316-1.728-1.393-2.667-3.044-2.667-1.096 0-1.783.564-1.783 1.296 0 .733.52 1.184 1.56 1.37l1.744.34c1.912.356 2.915 1.295 2.915 2.63 0 1.746-1.282 2.853-3.566 2.853-1.15 0-2.116-.394-2.97-1.182l-.39.958h-.946v-3.72zm10.165-4.3h-1.56v-.92c1.412-.076 2.117-1.222 2.284-3.513h.873v3.51h2.673v.92h-2.673v6.144c0 .694.28 1.032.89 1.032 1.115 0 1.356-.864 1.356-2.854h.854v.206c0 2.573-.705 3.738-2.506 3.738-1.337 0-2.19-.827-2.19-2.122V76.7z" id="Logo-Type" fill="#A12830"/></g></g></g></svg>